<?xml version="1.0" encoding="UTF-8"?>
<svg xmlns="http://www.w3.org/2000/svg" xmlns:xlink="http://www.w3.org/1999/xlink" width="128px" height="128px" viewBox="0 0 128 128" version="1.1">
<g id="surface1">
<path style=" stroke:none;fill-rule:nonzero;fill:rgb(0%,62.352943%,89.019608%);fill-opacity:1;" d="M 107.820312 93.347656 L 95.496094 114.859375 L 93.199219 116.234375 L 68.523438 116.234375 L 68.523438 109.925781 L 91.066406 109.925781 L 102.347656 90.214844 Z M 107.820312 93.347656 "/>
<path style=" stroke:none;fill-rule:nonzero;fill:rgb(0%,0%,0%);fill-opacity:1;" d="M 124.066406 62.191406 L 124.066406 64.863281 L 115.046875 80.570312 L 109.621094 77.429688 L 117.546875 63.53125 L 90.992188 17.125 L 37.90625 17.125 L 11.308594 63.53125 L 37.90625 109.925781 L 53.359375 109.925781 L 53.359375 116.234375 L 35.738281 116.234375 L 33.476562 114.902344 L 33.3125 114.644531 L 4.789062 64.863281 L 4.789062 62.191406 L 33.691406 12.074219 L 35.738281 10.820312 L 93.117188 10.820312 L 95.410156 12.203125 L 95.582031 12.449219 Z M 124.066406 62.191406 "/>
</g>
</svg>
