<?xml version="1.0" encoding="UTF-8"?>
<svg xmlns="http://www.w3.org/2000/svg" xmlns:xlink="http://www.w3.org/1999/xlink" width="128px" height="128px" viewBox="0 0 128 128" version="1.1">
<g id="surface1">
<path style=" stroke:none;fill-rule:nonzero;fill:rgb(13.725491%,12.156863%,12.54902%);fill-opacity:1;" d="M 25.457031 23.339844 L 25.183594 22.707031 L 14.699219 22.707031 L 14.425781 23.339844 L 9.1875 60.039062 L 9.1875 61.296875 L 14.425781 97.996094 L 14.699219 98.628906 L 17.699219 98.628906 L 17.699219 96.101562 L 14.882812 96.101562 L 9.824219 60.671875 L 14.882812 25.234375 L 25 25.234375 L 30.058594 60.671875 L 28.605469 70.84375 L 29.152344 72.105469 L 30.695312 61.296875 L 30.695312 60.039062 Z M 25.457031 23.339844 "/>
<path style=" stroke:none;fill-rule:nonzero;fill:rgb(0%,71.764708%,94.509804%);fill-opacity:1;" d="M 27.074219 81.578125 L 25 96.101562 L 20.894531 96.101562 L 20.894531 98.628906 L 25.183594 98.628906 L 25.457031 97.996094 L 27.621094 82.839844 Z M 27.074219 81.578125 "/>
<path style=" stroke:none;fill-rule:nonzero;fill:rgb(13.725491%,12.156863%,12.54902%);fill-opacity:1;" d="M 34.949219 41.625 C 34.949219 30.464844 36.875 21.761719 39.683594 21.761719 C 42.488281 21.761719 44.441406 30.363281 44.441406 41.574219 C 44.441406 50.960938 42.996094 58.1875 40.941406 60.339844 L 40.941406 60.492188 L 42.433594 60.59375 C 42.433594 60.59375 43.558594 65.152344 44.609375 68.617188 L 44.609375 70.238281 L 42.789062 70.238281 L 41.058594 62.582031 C 40.820312 61.535156 40.546875 61.066406 40.140625 61.167969 L 39.695312 61.269531 C 36.96875 61.285156 34.949219 52.796875 34.949219 41.625 Z M 36.511719 48.027344 C 36.691406 54.476562 37.9375 58.511719 39.8125 58.511719 C 41.699219 58.511719 42.65625 54.109375 42.878906 48.027344 C 43.011719 44.621094 42.996094 38.066406 42.878906 34.714844 C 42.65625 28.261719 41.449219 24.226562 39.578125 24.226562 C 37.691406 24.226562 36.691406 28.628906 36.511719 34.714844 C 36.402344 38.167969 36.402344 44.613281 36.511719 48.027344 Z M 36.511719 48.027344 "/>
<path style=" stroke:none;fill-rule:nonzero;fill:rgb(13.725491%,12.156863%,12.54902%);fill-opacity:1;" d="M 51.914062 58.71875 L 52.292969 58.71875 L 52.292969 60.605469 L 50.339844 60.605469 L 50.101562 55.3125 C 49.40625 58.511719 48.765625 61.183594 47.679688 61.183594 C 46.722656 61.183594 45.960938 58.199219 45.960938 53.949219 L 45.960938 40.261719 C 45.960938 39.425781 45.464844 37.640625 45.28125 37.640625 L 44.964844 37.640625 L 44.964844 35.753906 L 47.101562 35.753906 L 47.101562 53.785156 C 47.101562 56.25 47.414062 58.035156 48.085938 58.035156 C 49.082031 58.035156 50.089844 54 50.089844 52.316406 L 50.089844 40.261719 C 50.089844 39.425781 49.59375 37.640625 49.410156 37.640625 L 49.054688 37.640625 L 49.054688 35.753906 L 51.230469 35.753906 L 51.230469 56.097656 C 51.230469 56.882812 51.730469 58.71875 51.914062 58.71875 Z M 51.914062 58.71875 "/>
<path style=" stroke:none;fill-rule:nonzero;fill:rgb(13.725491%,12.156863%,12.54902%);fill-opacity:1;" d="M 56.269531 55.621094 C 55.773438 58.1875 55.117188 61.074219 54.199219 61.074219 C 53.347656 61.074219 52.628906 58.351562 52.628906 54.316406 C 52.628906 49.390625 53.753906 47.660156 54.632812 46.925781 L 56.230469 45.609375 L 56.242188 42.523438 C 56.257812 39.007812 55.902344 37.019531 54.789062 37.019531 C 53.726562 37.019531 53.386719 39.738281 53.84375 43.988281 L 53.398438 43.988281 L 52.574219 39.007812 C 53.085938 36.90625 53.804688 35.175781 55.0625 35.175781 C 56.402344 35.175781 57.382812 37.691406 57.382812 42.5625 L 57.382812 56.089844 C 57.382812 56.925781 57.894531 58.710938 58.0625 58.710938 L 58.429688 58.710938 L 58.429688 60.59375 L 56.425781 60.59375 Z M 54.761719 48.757812 C 53.988281 49.542969 53.726562 51.226562 53.726562 53.683594 C 53.726562 55.832031 54.109375 57.667969 54.722656 57.667969 C 55.328125 57.667969 55.984375 55.152344 56.246094 53.316406 L 56.246094 47.230469 Z M 54.761719 48.757812 "/>
<path style=" stroke:none;fill-rule:nonzero;fill:rgb(13.725491%,12.156863%,12.54902%);fill-opacity:1;" d="M 65.117188 58.71875 L 65.429688 58.71875 L 65.429688 60.605469 L 62.257812 60.605469 L 62.257812 58.71875 L 62.609375 58.71875 C 62.792969 58.71875 63.292969 56.933594 63.292969 56.097656 L 63.292969 42.574219 C 63.292969 40.15625 62.976562 38.324219 62.308594 38.324219 C 61.429688 38.324219 60.289062 41.777344 60.289062 43.460938 L 60.289062 56.089844 C 60.289062 56.925781 60.789062 58.710938 60.96875 58.710938 L 61.324219 58.710938 L 61.324219 60.59375 L 58.089844 60.59375 L 58.089844 58.710938 L 58.46875 58.710938 C 58.652344 58.710938 59.148438 56.925781 59.148438 56.089844 L 59.148438 40.261719 C 59.148438 39.476562 58.652344 37.640625 58.46875 37.640625 L 58.089844 37.640625 L 58.089844 35.753906 L 60.039062 35.753906 L 60.277344 40.839844 C 61.023438 37.800781 61.601562 35.234375 62.714844 35.234375 C 63.671875 35.234375 64.433594 38.066406 64.433594 42.308594 L 64.433594 56.097656 C 64.433594 56.933594 64.933594 58.71875 65.117188 58.71875 Z M 65.117188 58.71875 "/>
<path style=" stroke:none;fill-rule:nonzero;fill:rgb(13.725491%,12.156863%,12.54902%);fill-opacity:1;" d="M 67.488281 61.183594 C 66.792969 61.183594 66.167969 59.136719 66.167969 55.414062 L 66.167969 38.058594 L 65.066406 38.058594 L 65.066406 36.488281 C 65.839844 33.972656 66.296875 32.238281 66.902344 29.253906 L 67.28125 29.253906 L 67.28125 35.753906 L 69.101562 35.753906 L 69.101562 38.058594 L 67.320312 38.058594 L 67.320312 54.621094 C 67.320312 56.457031 67.582031 57.660156 68.121094 57.660156 C 68.433594 57.660156 68.878906 56.660156 69.074219 56.089844 L 69.296875 57.402344 C 69.023438 58.617188 68.15625 61.183594 67.488281 61.183594 Z M 67.488281 61.183594 "/>
<path style=" stroke:none;fill-rule:nonzero;fill:rgb(13.725491%,12.156863%,12.54902%);fill-opacity:1;" d="M 76.6875 58.71875 L 77.070312 58.71875 L 77.070312 60.605469 L 75.117188 60.605469 L 74.878906 55.3125 C 74.183594 58.511719 73.542969 61.183594 72.453125 61.183594 C 71.5 61.183594 70.738281 58.199219 70.738281 53.949219 L 70.738281 40.261719 C 70.738281 39.425781 70.238281 37.640625 70.054688 37.640625 L 69.742188 37.640625 L 69.742188 35.753906 L 71.878906 35.753906 L 71.878906 53.785156 C 71.878906 56.25 72.191406 58.035156 72.863281 58.035156 C 73.859375 58.035156 74.867188 54 74.867188 52.316406 L 74.867188 40.261719 C 74.867188 39.425781 74.371094 37.640625 74.1875 37.640625 L 73.832031 37.640625 L 73.832031 35.753906 L 76.007812 35.753906 L 76.007812 56.097656 C 76.007812 56.882812 76.503906 58.71875 76.6875 58.71875 Z M 76.6875 58.71875 "/>
<path style=" stroke:none;fill-rule:nonzero;fill:rgb(13.725491%,12.156863%,12.54902%);fill-opacity:1;" d="M 87.738281 58.71875 L 88.027344 58.71875 L 88.027344 60.605469 L 84.933594 60.605469 L 84.933594 58.71875 L 85.289062 58.71875 C 85.472656 58.71875 85.945312 56.933594 85.945312 56.097656 L 85.945312 42.308594 C 85.945312 39.894531 85.644531 38.222656 84.972656 38.222656 C 84.160156 38.222656 83.152344 41.371094 83.152344 43.042969 L 83.152344 56.097656 C 83.152344 56.933594 83.621094 58.71875 83.804688 58.71875 L 84.160156 58.71875 L 84.160156 60.605469 L 81.003906 60.605469 L 81.003906 58.71875 L 81.355469 58.71875 C 81.539062 58.71875 82.011719 56.933594 82.011719 56.097656 L 82.011719 42.308594 C 82.011719 39.894531 81.699219 38.222656 81.027344 38.222656 C 80.214844 38.222656 79.207031 41.523438 79.207031 43.203125 L 79.207031 56.097656 C 79.207031 56.933594 79.679688 58.71875 79.863281 58.71875 L 80.214844 58.71875 L 80.214844 60.605469 L 77.058594 60.605469 L 77.058594 58.71875 L 77.414062 58.71875 C 77.597656 58.71875 78.066406 56.933594 78.066406 56.097656 L 78.066406 40.261719 C 78.066406 39.476562 77.597656 37.640625 77.414062 37.640625 L 77.058594 37.640625 L 77.058594 35.753906 L 78.957031 35.753906 L 79.207031 40.523438 C 79.917969 37.539062 80.375 35.226562 81.464844 35.226562 C 82.289062 35.226562 82.984375 37.007812 83.101562 40.464844 C 83.863281 37.476562 84.347656 35.277344 85.394531 35.277344 C 86.324219 35.277344 87.085938 37.792969 87.085938 42.300781 L 87.085938 56.089844 C 87.085938 56.933594 87.554688 58.71875 87.738281 58.71875 Z M 87.738281 58.71875 "/>
<path style=" stroke:none;fill-rule:nonzero;fill:rgb(13.725491%,12.156863%,12.54902%);fill-opacity:1;" d="M 88.96875 58.71875 C 89.152344 58.71875 89.703125 56.617188 89.703125 55.832031 L 89.703125 27.210938 C 89.703125 26.425781 89.152344 24.328125 88.96875 24.328125 L 88.472656 24.328125 L 88.472656 22.441406 L 92.351562 22.441406 C 94.183594 22.441406 95.640625 25.222656 95.640625 31.777344 C 95.640625 35.449219 95.273438 37.128906 94.761719 38.382812 L 93.4375 39.902344 C 94.789062 40.847656 96.191406 43.308594 96.191406 49.757812 C 96.191406 56.679688 94.777344 60.613281 92.480469 60.613281 L 88.46875 60.613281 L 88.46875 58.726562 L 88.96875 58.726562 Z M 91 26.214844 L 91 39.527344 L 92.535156 39.527344 C 93.347656 39.109375 94.226562 37.375 94.304688 33.492188 C 94.316406 32.8125 94.316406 31.660156 94.304688 30.875 C 94.25 26.941406 93.230469 24.535156 92.339844 24.535156 L 91.410156 24.535156 C 91.25 24.535156 91 25.582031 91 26.214844 Z M 94.800781 51.328125 C 94.8125 50.378906 94.8125 49.28125 94.800781 48.339844 C 94.746094 44.089844 93.621094 41.523438 92.652344 41.523438 L 91 41.523438 L 91 56.78125 C 91 57.300781 91.25 58.351562 91.378906 58.351562 L 92.492188 58.351562 C 93.777344 58.351562 94.746094 55.78125 94.800781 51.328125 Z M 94.800781 51.328125 "/>
<path style=" stroke:none;fill-rule:nonzero;fill:rgb(13.725491%,12.156863%,12.54902%);fill-opacity:1;" d="M 98.617188 56.097656 C 98.617188 56.933594 99.128906 58.71875 99.296875 58.71875 L 99.675781 58.71875 L 99.675781 60.605469 L 96.398438 60.605469 L 96.398438 58.71875 L 96.777344 58.71875 C 96.960938 58.71875 97.460938 56.933594 97.460938 56.097656 L 97.460938 26.949219 C 97.460938 26.164062 96.960938 24.328125 96.777344 24.328125 L 96.398438 24.328125 L 96.398438 22.441406 L 98.613281 20.191406 L 98.613281 56.097656 Z M 98.617188 56.097656 "/>
<path style=" stroke:none;fill-rule:nonzero;fill:rgb(13.725491%,12.156863%,12.54902%);fill-opacity:1;" d="M 103.820312 55.621094 C 103.324219 58.1875 102.667969 61.074219 101.75 61.074219 C 100.898438 61.074219 100.175781 58.351562 100.175781 54.316406 C 100.175781 49.390625 101.304688 47.660156 102.183594 46.925781 L 103.78125 45.609375 L 103.792969 42.523438 C 103.804688 39.007812 103.453125 37.019531 102.339844 37.019531 C 101.277344 37.019531 100.9375 39.738281 101.394531 43.988281 L 100.949219 43.988281 L 100.125 39.007812 C 100.636719 36.90625 101.355469 35.175781 102.613281 35.175781 C 103.949219 35.175781 104.933594 37.691406 104.933594 42.5625 L 104.933594 56.089844 C 104.933594 56.925781 105.445312 58.710938 105.613281 58.710938 L 105.980469 58.710938 L 105.980469 60.59375 L 103.972656 60.59375 Z M 102.3125 48.757812 C 101.539062 49.542969 101.277344 51.226562 101.277344 53.683594 C 101.277344 55.832031 101.65625 57.667969 102.273438 57.667969 C 102.878906 57.667969 103.53125 55.152344 103.796875 53.316406 L 103.796875 47.230469 Z M 102.3125 48.757812 "/>
<path style=" stroke:none;fill-rule:nonzero;fill:rgb(13.725491%,12.156863%,12.54902%);fill-opacity:1;" d="M 108.792969 37.019531 C 107.558594 37.019531 106.957031 40.953125 106.957031 46.769531 C 106.957031 52.273438 107.835938 56.832031 109.25 56.832031 C 110.324219 56.832031 110.785156 55.3125 111.214844 52.429688 L 111.59375 52.429688 C 111.1875 57.832031 110.363281 61.234375 108.816406 61.234375 C 107.101562 61.234375 105.984375 55.363281 105.984375 48.339844 C 105.984375 40.371094 107.3125 35.132812 108.933594 35.132812 C 109.90625 35.132812 110.558594 36.335938 111.125 38.585938 L 110.21875 44.195312 L 109.839844 44.296875 C 110.007812 40.472656 109.855469 37.019531 108.792969 37.019531 Z M 108.792969 37.019531 "/>
<path style=" stroke:none;fill-rule:nonzero;fill:rgb(13.725491%,12.156863%,12.54902%);fill-opacity:1;" d="M 113.925781 49.433594 L 116.019531 41.207031 C 116.21875 40.472656 115.941406 37.640625 115.691406 37.640625 L 115.339844 37.640625 L 115.339844 35.753906 L 118.40625 35.753906 L 118.40625 37.640625 L 118.117188 37.640625 C 117.804688 37.90625 116.871094 40.679688 116.675781 41.464844 L 115.589844 45.550781 L 117.660156 55.558594 C 117.832031 56.398438 118.328125 58.710938 118.523438 58.710938 L 118.8125 58.710938 L 118.8125 60.59375 L 117.015625 60.59375 C 117.015625 60.59375 115.96875 55.304688 114.746094 48.800781 L 113.921875 51.890625 L 113.921875 56.082031 C 113.921875 56.917969 114.433594 58.699219 114.601562 58.699219 L 114.988281 58.699219 L 114.988281 60.585938 L 111.710938 60.585938 L 111.710938 58.699219 L 112.089844 58.699219 C 112.273438 58.699219 112.769531 56.917969 112.769531 56.082031 L 112.769531 27 C 112.769531 26.214844 112.273438 24.277344 112.089844 24.277344 L 111.710938 24.277344 L 111.710938 22.441406 L 113.925781 20.191406 Z M 113.925781 49.433594 "/>
<path style=" stroke:none;fill-rule:nonzero;fill:rgb(13.725491%,12.156863%,12.54902%);fill-opacity:1;" d="M 48.984375 70.894531 L 51.242188 95.113281 C 51.355469 95.71875 51.773438 97.382812 51.902344 97.382812 L 52.082031 97.382812 L 52.082031 98.78125 L 49.332031 98.78125 L 49.332031 97.382812 L 49.710938 97.382812 C 49.851562 97.347656 50.175781 95.761719 50.175781 95.113281 L 49.71875 90.164062 L 47.273438 90.164062 L 46.8125 95.113281 C 46.839844 95.753906 47.140625 97.382812 47.28125 97.382812 L 47.640625 97.382812 L 47.640625 98.78125 L 45.449219 98.78125 L 45.449219 97.382812 L 45.609375 97.382812 C 45.742188 97.347656 46.261719 95.796875 46.367188 95.113281 L 48.59375 71.800781 Z M 49.5625 88.277344 L 48.523438 76.945312 L 47.445312 88.277344 Z M 49.5625 88.277344 "/>
<path style=" stroke:none;fill-rule:nonzero;fill:rgb(13.725491%,12.156863%,12.54902%);fill-opacity:1;" d="M 52.941406 72.636719 L 52.585938 72.636719 L 52.585938 71.277344 L 55.304688 71.277344 L 55.304688 72.636719 L 54.945312 72.636719 C 54.8125 72.636719 54.417969 74.144531 54.417969 74.71875 L 54.417969 95.351562 C 54.417969 95.914062 54.8125 97.433594 54.945312 97.433594 L 55.304688 97.433594 L 55.304688 98.789062 L 52.585938 98.789062 L 52.585938 97.433594 L 52.941406 97.433594 C 53.074219 97.433594 53.472656 95.921875 53.472656 95.351562 L 53.472656 74.710938 C 53.472656 74.144531 53.074219 72.636719 52.941406 72.636719 Z M 52.941406 72.636719 "/>
<path style=" stroke:none;fill-rule:nonzero;fill:rgb(13.725491%,12.156863%,12.54902%);fill-opacity:1;" d="M 61.492188 80.417969 C 62.578125 80.417969 63.230469 84.078125 63.230469 89.566406 C 63.230469 95.011719 62.417969 99.164062 61.324219 99.164062 C 60.519531 99.164062 60.140625 97.886719 59.828125 95.691406 L 59.074219 99.019531 L 59.035156 99.019531 L 59.035156 74.488281 C 59.035156 73.925781 58.675781 72.601562 58.546875 72.601562 L 58.273438 72.601562 L 58.273438 71.277344 L 59.867188 69.65625 L 59.867188 84.546875 C 60.253906 81.664062 60.753906 80.417969 61.492188 80.417969 Z M 59.867188 87.40625 L 59.867188 91.5625 C 59.867188 94.703125 60.367188 97.347656 61.121094 97.347656 C 61.90625 97.347656 62.273438 95.34375 62.367188 92.511719 C 62.425781 90.8125 62.433594 88.847656 62.375 87.183594 C 62.28125 84.351562 61.894531 82.535156 61.253906 82.535156 C 60.5 82.535156 60.089844 84.617188 59.867188 87.40625 Z M 59.867188 87.40625 "/>
<path style=" stroke:none;fill-rule:nonzero;fill:rgb(13.725491%,12.156863%,12.54902%);fill-opacity:1;" d="M 63.203125 82.234375 L 63.003906 82.234375 L 63.003906 80.878906 L 65.375 80.878906 L 65.375 82.234375 L 65.101562 82.234375 C 64.976562 82.234375 64.703125 83.480469 64.703125 84.164062 L 65.742188 93.722656 L 66.761719 84.199219 C 66.769531 83.480469 66.5 82.234375 66.375 82.234375 L 66.101562 82.234375 L 66.101562 80.878906 L 67.886719 80.878906 L 67.886719 82.234375 L 67.679688 82.234375 C 67.574219 82.234375 67.253906 83.59375 67.160156 84.199219 L 65.636719 97.910156 L 64.515625 107.808594 L 64.109375 107.050781 L 65.300781 97.304688 L 63.777344 84.265625 C 63.714844 83.667969 63.316406 82.234375 63.203125 82.234375 Z M 63.203125 82.234375 "/>
<path style=" stroke:none;fill-rule:nonzero;fill:rgb(13.725491%,12.156863%,12.54902%);fill-opacity:1;" d="M 70.617188 72.636719 L 70.277344 72.636719 L 70.277344 71.277344 L 72.28125 71.277344 L 74.339844 92.023438 L 74.386719 92.023438 L 76.558594 71.277344 L 78.351562 71.277344 L 78.351562 72.636719 L 78.015625 72.636719 C 77.882812 72.636719 77.484375 74.144531 77.484375 74.71875 L 77.484375 95.351562 C 77.484375 95.914062 77.882812 97.433594 78.015625 97.433594 L 78.351562 97.433594 L 78.351562 98.789062 L 75.691406 98.789062 L 75.691406 97.433594 L 76.03125 97.433594 C 76.164062 97.433594 76.558594 95.921875 76.558594 95.351562 L 76.558594 75.316406 L 74.054688 99.269531 L 71.554688 74.898438 L 71.554688 95.34375 C 71.554688 95.90625 71.949219 97.425781 72.082031 97.425781 L 72.421875 97.425781 L 72.421875 98.78125 L 70.277344 98.78125 L 70.277344 97.425781 L 70.617188 97.425781 C 70.75 97.425781 71.148438 95.914062 71.148438 95.34375 L 71.148438 74.710938 C 71.148438 74.144531 70.75 72.636719 70.617188 72.636719 Z M 70.617188 72.636719 "/>
<path style=" stroke:none;fill-rule:nonzero;fill:rgb(13.725491%,12.156863%,12.54902%);fill-opacity:1;" d="M 80.429688 81.773438 C 79.542969 81.773438 79.105469 84.609375 79.105469 88.804688 C 79.105469 92.773438 79.738281 96.058594 80.757812 96.058594 C 81.535156 96.058594 81.863281 94.96875 82.175781 92.886719 L 82.449219 92.886719 C 82.15625 96.777344 81.5625 99.234375 80.445312 99.234375 C 79.207031 99.234375 78.402344 95 78.402344 89.941406 C 78.402344 84.199219 79.359375 80.417969 80.527344 80.417969 C 81.230469 80.417969 81.699219 81.289062 82.105469 82.910156 L 81.453125 86.953125 L 81.179688 87.03125 C 81.304688 84.273438 81.191406 81.773438 80.429688 81.773438 Z M 80.429688 81.773438 "/>
<path style=" stroke:none;fill-rule:nonzero;fill:rgb(13.725491%,12.156863%,12.54902%);fill-opacity:1;" d="M 86.269531 72.636719 L 85.9375 72.636719 L 85.9375 71.277344 L 88.429688 71.277344 L 88.429688 72.636719 L 88.101562 72.636719 C 87.96875 72.636719 87.316406 74.71875 87.222656 75.128906 L 85.546875 82.304688 L 87.957031 95.113281 C 88.070312 95.71875 88.628906 97.417969 88.769531 97.417969 L 88.996094 97.417969 L 88.996094 98.773438 L 87.304688 98.773438 L 84.921875 85.019531 L 84.222656 88.039062 L 84.222656 95.335938 C 84.222656 95.898438 84.621094 97.417969 84.753906 97.417969 L 85.09375 97.417969 L 85.09375 98.773438 L 82.410156 98.773438 L 82.410156 97.417969 L 82.746094 97.417969 C 82.878906 97.417969 83.277344 95.90625 83.277344 95.335938 L 83.277344 74.710938 C 83.277344 74.144531 82.878906 72.628906 82.746094 72.628906 L 82.410156 72.628906 L 82.410156 71.269531 L 85.09375 71.269531 L 85.09375 72.628906 L 84.753906 72.628906 C 84.621094 72.628906 84.222656 74.136719 84.222656 74.710938 L 84.222656 85.972656 L 86.679688 75.015625 C 86.785156 74.523438 86.398438 72.636719 86.269531 72.636719 Z M 86.269531 72.636719 "/>
<path style=" stroke:none;fill-rule:nonzero;fill:rgb(13.725491%,12.156863%,12.54902%);fill-opacity:1;" d="M 90.5 95.53125 C 90.5 96.136719 90.867188 97.417969 90.988281 97.417969 L 91.261719 97.417969 L 91.261719 98.773438 L 88.898438 98.773438 L 88.898438 97.417969 L 89.171875 97.417969 C 89.304688 97.417969 89.664062 96.128906 89.664062 95.53125 L 89.664062 84.121094 C 89.664062 83.550781 89.304688 82.234375 89.171875 82.234375 L 88.898438 82.234375 L 88.898438 80.878906 L 90.496094 80.878906 L 90.496094 95.53125 Z M 89.996094 72.140625 C 90.328125 72.140625 90.574219 73.011719 90.574219 74.410156 C 90.574219 75.808594 90.328125 76.714844 89.996094 76.714844 C 89.667969 76.714844 89.410156 75.808594 89.410156 74.410156 C 89.414062 73.011719 89.667969 72.140625 89.996094 72.140625 Z M 89.996094 72.140625 "/>
<path style=" stroke:none;fill-rule:nonzero;fill:rgb(13.725491%,12.156863%,12.54902%);fill-opacity:1;" d="M 96.261719 97.425781 L 96.488281 97.425781 L 96.488281 98.78125 L 94.199219 98.78125 L 94.199219 97.425781 L 94.457031 97.425781 C 94.585938 97.425781 94.945312 96.136719 94.945312 95.539062 L 94.945312 85.792969 C 94.945312 84.054688 94.71875 82.730469 94.238281 82.730469 C 93.605469 82.730469 92.78125 85.222656 92.78125 86.433594 L 92.78125 95.539062 C 92.78125 96.144531 93.140625 97.425781 93.273438 97.425781 L 93.53125 97.425781 L 93.53125 98.78125 L 91.195312 98.78125 L 91.195312 97.425781 L 91.46875 97.425781 C 91.601562 97.425781 91.960938 96.136719 91.960938 95.539062 L 91.960938 84.121094 C 91.960938 83.550781 91.601562 82.234375 91.46875 82.234375 L 91.195312 82.234375 L 91.195312 80.878906 L 92.605469 80.878906 L 92.773438 84.539062 C 93.3125 82.347656 93.726562 80.496094 94.53125 80.496094 C 95.222656 80.496094 95.769531 82.535156 95.769531 85.597656 L 95.769531 95.539062 C 95.769531 96.136719 96.128906 97.425781 96.261719 97.425781 Z M 96.261719 97.425781 "/>
<path style=" stroke:none;fill-rule:nonzero;fill:rgb(13.725491%,12.156863%,12.54902%);fill-opacity:1;" d="M 98.648438 97.765625 C 99.203125 97.765625 99.515625 96.972656 99.515625 95.308594 C 99.515625 93.304688 99.070312 92.628906 98.675781 91.945312 C 98.363281 91.417969 98.109375 91 97.75 90.359375 C 97.210938 89.378906 96.804688 87.945312 96.804688 85.488281 C 96.804688 82.277344 97.285156 80.425781 98.144531 80.425781 C 98.636719 80.425781 98.910156 81.375 99.25 81.375 C 99.382812 81.375 99.457031 81.261719 99.496094 80.878906 L 99.742188 80.878906 L 99.742188 86.390625 L 99.46875 86.390625 C 99.46875 84.914062 98.949219 81.785156 98.117188 81.785156 C 97.597656 81.785156 97.351562 82.6875 97.351562 84.164062 C 97.351562 85.71875 97.617188 86.28125 98.078125 87.074219 C 98.417969 87.644531 98.675781 88.097656 99.042969 88.660156 C 99.527344 89.421875 100.074219 90.964844 100.074219 93.839844 C 100.074219 97.246094 99.488281 99.242188 98.648438 99.242188 C 98.078125 99.242188 97.75 98.183594 97.363281 98.183594 C 97.183594 98.183594 97.136719 98.371094 97.023438 98.789062 L 96.804688 98.789062 L 96.804688 92.519531 L 97.078125 92.519531 C 97.078125 94.175781 97.683594 97.765625 98.648438 97.765625 Z M 98.648438 97.765625 "/>
<path style=" stroke:none;fill-rule:nonzero;fill:rgb(13.725491%,12.156863%,12.54902%);fill-opacity:1;" d="M 100.308594 89.832031 C 100.308594 84.539062 101.207031 80.417969 102.355469 80.460938 C 103.367188 80.496094 103.933594 83.257812 103.984375 86.734375 L 104.003906 88.019531 L 101.027344 88.96875 C 101.027344 92.5625 101.648438 96.109375 102.660156 96.109375 C 103.425781 96.109375 103.773438 94.941406 104.050781 92.902344 L 104.320312 92.902344 C 104.03125 96.792969 103.472656 99.21875 102.375 99.21875 C 101.128906 99.199219 100.308594 94.855469 100.308594 89.832031 Z M 102.339844 81.816406 C 101.414062 81.816406 101.042969 84.882812 101.015625 87.671875 L 103.234375 86.910156 C 103.3125 84.386719 103.207031 81.816406 102.339844 81.816406 Z M 102.339844 81.816406 "/>
<path style=" stroke:none;fill-rule:nonzero;fill:rgb(13.725491%,12.156863%,12.54902%);fill-opacity:1;" d="M 104.105469 82.234375 L 103.910156 82.234375 L 103.910156 80.878906 L 106.277344 80.878906 L 106.277344 82.234375 L 106.003906 82.234375 C 105.882812 82.234375 105.609375 83.480469 105.609375 84.164062 L 106.648438 93.722656 L 107.667969 84.199219 C 107.675781 83.480469 107.402344 82.234375 107.277344 82.234375 L 107.007812 82.234375 L 107.007812 80.878906 L 108.792969 80.878906 L 108.792969 82.234375 L 108.585938 82.234375 C 108.480469 82.234375 108.160156 83.59375 108.0625 84.199219 L 106.542969 97.910156 L 105.417969 107.808594 L 105.011719 107.050781 L 106.203125 97.304688 L 104.683594 84.265625 C 104.617188 83.667969 104.21875 82.234375 104.105469 82.234375 Z M 104.105469 82.234375 "/>
</g>
</svg>
